<svg width="58" height="53" viewBox="0 0 58 53" fill="none" xmlns="http://www.w3.org/2000/svg">
<path d="M48.5792 0C48.2557 0.420464 48.8218 1.93418 48.5185 2.33363C48.2355 2.71205 47.9525 3.1115 47.6695 3.53196C49.7113 4.30984 51.359 5.27693 52.6124 6.43323C53.8658 7.5685 54.8361 8.76686 55.5235 10.0283C56.2109 11.2687 56.6656 12.4985 56.888 13.7179C57.1307 14.9163 57.2519 15.9569 57.2519 16.8399C57.2519 18.0802 57.0498 19.2682 56.6454 20.4034C56.2613 21.5176 55.7357 22.5373 55.0685 23.4624C54.4217 24.3874 53.6636 25.1967 52.7943 25.8906C51.925 26.5633 51.0153 27.0784 50.0651 27.4358C52.0261 29.1178 53.4817 30.9889 54.4319 33.0491C55.4021 35.1095 55.8874 37.1908 55.8874 39.2931C55.8874 41.0591 55.5336 42.7305 54.826 44.3073C54.1387 45.8841 53.1987 47.261 52.0059 48.4385C50.8132 49.6158 49.3979 50.5513 47.7605 51.2452C46.1431 51.9388 44.4147 52.2857 42.575 52.2857C40.978 52.2857 39.5023 52.0124 38.1477 51.4659C36.8135 50.9403 35.6107 50.215 34.5391 49.2899C33.488 48.3649 32.5681 47.2716 31.7796 46.0101C31.0115 44.7487 31.9212 42.9302 31.4765 41.5006C32.2244 44.0235 33.4576 45.9682 35.176 47.3347C36.8943 48.7223 38.9664 49.4159 41.3924 49.4159C42.8884 49.4159 44.3137 49.1216 45.6681 48.533C47.0428 47.9654 48.2456 47.1876 49.2767 46.1994C50.3076 45.1903 51.1265 44.013 51.733 42.6674C52.3395 41.301 52.6427 39.8292 52.6427 38.2524C52.6427 37.1803 52.5011 36.1606 52.2181 35.1935C51.9351 34.2264 51.5611 33.3119 51.0962 32.4499C50.6311 31.588 50.1055 30.7995 49.5193 30.0849C48.9532 29.349 48.367 28.6972 47.7605 28.1296C47.2147 28.2348 46.6689 28.3187 46.1229 28.3819C45.5771 28.445 45.0414 28.4765 44.5158 28.4765C43.788 28.4765 43.0401 28.4239 42.2718 28.3187C41.5239 28.1927 40.8365 28.0139 40.2097 27.7827C39.6033 27.5515 39.0979 27.2466 38.6935 26.8682C38.3095 26.4897 38.1174 26.0273 38.1174 25.4807C38.1174 25.3545 38.1477 25.1759 38.2084 24.9445C38.2691 24.6922 38.3903 24.4505 38.5723 24.2193C38.7744 23.9879 39.0676 23.7882 39.4517 23.6201C39.8359 23.4308 40.3614 23.3361 41.0286 23.3361C41.6552 23.3361 42.2819 23.4098 42.9086 23.557C43.5555 23.7041 44.1721 23.9039 44.7584 24.1562C45.3447 24.3874 45.9107 24.6607 46.4565 24.976C47.0025 25.2704 47.4977 25.5752 47.9424 25.8906C48.6702 25.5542 49.3979 25.1023 50.1258 24.5346C50.8739 23.9458 51.551 23.2311 52.1574 22.3901C52.7639 21.5492 53.2593 20.5821 53.6433 19.4889C54.0275 18.3956 54.2195 17.1657 54.2195 15.7993C54.2195 13.4026 53.5826 11.2476 52.3092 9.33448C51.0355 7.42134 49.1452 5.9602 46.6385 4.95107C45.4256 6.71705 44.2935 8.47252 43.2422 10.2175C42.191 11.9624 41.2105 13.7074 40.3008 15.4524C39.391 17.1973 38.5319 18.9424 37.7233 20.6873C36.9347 22.4321 36.1767 24.1983 35.4489 25.9852C33.771 30.0638 32.1334 33.5538 30.5365 36.4549C28.9393 39.3352 27.2311 41.6898 25.4116 43.5188C23.6124 45.348 21.6412 46.6829 19.4985 47.524C17.3758 48.3859 14.9397 48.8168 12.1903 48.8168C10.0676 48.8168 8.23805 48.449 6.70164 47.7131C5.16521 46.9983 3.90171 46.0101 2.91112 44.7487C1.92053 43.4874 1.18265 42.0262 0.697461 40.3654C0.232481 38.6835 0 36.8965 0 35.0044C0 32.902 0.323454 30.7366 0.970381 28.5081C1.61729 26.2585 2.57756 24.0194 3.85116 21.7909C4.65981 20.3824 5.66051 18.9213 6.85326 17.4076C8.04601 15.8727 9.41059 14.3696 10.947 12.898C12.4834 11.4053 14.1916 9.99673 16.0718 8.67225C17.9721 7.32673 20.0139 6.15993 22.1973 5.1718C24.4008 4.16268 26.7458 3.36379 29.2324 2.77513C31.7393 2.16543 34.3775 1.86059 37.1471 1.86059C38.8452 1.86059 40.3918 1.9552 41.7866 2.14441C43.2017 2.31261 44.5057 2.56487 45.6985 2.90127C46.1634 2.41771 46.6284 1.93418 47.0933 1.45062C47.5786 0.967089 48.0739 0.483535 48.5792 0ZM37.3897 14.1909C38.4611 12.3409 39.5729 10.6064 40.7254 8.98761C41.8979 7.34775 43.1511 5.77098 44.4855 4.25729C43.7174 4.06807 42.8985 3.92091 42.0292 3.81579C41.1802 3.71068 40.2805 3.65811 39.3303 3.65811C36.2777 3.65811 33.2656 4.09961 30.2937 4.98261C27.3422 5.84457 24.5221 7.05343 21.8334 8.60918C19.1649 10.1649 16.6884 12.015 14.404 14.1594C12.1195 16.3038 10.1384 18.6375 8.46044 21.1602C6.80271 23.662 5.49878 26.3111 4.54862 29.1072C3.61868 31.9034 3.15372 34.7416 3.15372 37.6217C3.15372 39.0514 3.33567 40.3549 3.69954 41.5322C4.08364 42.6884 4.64969 43.6871 5.39769 44.528C6.14568 45.348 7.06553 45.9891 8.15719 46.4517C9.26908 46.8933 10.5427 47.114 11.978 47.114C14.3838 47.114 16.4863 46.6514 18.2855 45.7263C20.0847 44.7802 21.6817 43.498 23.0767 41.8791C24.4918 40.2603 25.7655 38.3786 26.8975 36.2342C28.0296 34.0688 29.1313 31.7666 30.2029 29.3279C31.2945 26.8892 32.4063 24.3769 33.5385 21.7909C34.6706 19.2051 35.9544 16.6718 37.3897 14.1909ZM45.8804 26.5213C45.5771 26.2901 45.2132 26.0799 44.7887 25.8906C44.3844 25.6804 43.9599 25.5121 43.5151 25.3861C43.0704 25.2388 42.6256 25.1233 42.1809 25.0391C41.7361 24.955 41.3519 24.9129 41.0286 24.9129C40.4624 24.9129 40.0987 24.9866 39.9368 25.1338C39.7954 25.2598 39.7246 25.3755 39.7246 25.4807C39.7246 25.6699 39.8559 25.838 40.1189 25.9852C40.4019 26.1323 40.7454 26.269 41.1498 26.3952C41.5744 26.5002 42.0393 26.5844 42.5447 26.6475C43.0502 26.7106 43.5454 26.742 44.0305 26.742C44.253 26.742 44.5057 26.7316 44.7887 26.7106C45.0718 26.6896 45.4357 26.6264 45.8804 26.5213Z" fill="#0F1221"/>
</svg>
